HIERARCHY
ROOT Pelvis
{
	OFFSET 0.000000 0.941512 0.000000
	CHANNELS 6 Xposition Yposition Zposition Zrotation Yrotation Xrotation 
	JOINT Pelvis_L_Hip
	{
		OFFSET 0.000000 0.000000 0.000000
		CHANNELS 3 Zrotation Yrotation Xrotation
		JOINT L_Hip
		{
			OFFSET 0.062321 -0.080322 -0.016990
			CHANNELS 3 Zrotation Yrotation Xrotation
			JOINT L_Knee
			{
				OFFSET 0.093051 -0.381305 -0.029784
				CHANNELS 3 Zrotation Yrotation Xrotation
				JOINT L_Ankle
				{
					OFFSET -0.010371 -0.431000 -0.033614
					CHANNELS 3 Zrotation Yrotation Xrotation
					End Site #name: L_Foot
					{
						OFFSET 0.069299 -0.038670 0.119418
					}
				}
			}
		}
	}
	JOINT Pelvis_R_Hip
	{
		OFFSET 0.000000 0.000000 0.000000
		CHANNELS 3 Zrotation Yrotation Xrotation
		JOINT R_Hip
		{
			OFFSET -0.055334 -0.094904 -0.002373
			CHANNELS 3 Zrotation Yrotation Xrotation
			JOINT R_Knee
			{
				OFFSET -0.064207 -0.384370 -0.019592
				CHANNELS 3 Zrotation Yrotation Xrotation
				JOINT R_Ankle
				{
					OFFSET 0.025418 -0.419734 -0.065953
					CHANNELS 3 Zrotation Yrotation Xrotation
					End Site #name: R_Foot
					{
						OFFSET -0.057233 -0.039888 0.132134
					}
				}
			}
		}
	}
	JOINT Pelvis_Spine1
	{
		OFFSET 0.000000 0.000000 0.000000
		CHANNELS 3 Zrotation Yrotation Xrotation
		JOINT Spine1
		{
			OFFSET -0.005562 0.124093 -0.043360
			CHANNELS 3 Zrotation Yrotation Xrotation
			JOINT Spine2
			{
				OFFSET 0.012244 0.139499 0.029894
				CHANNELS 3 Zrotation Yrotation Xrotation
				JOINT Spine3
				{
					OFFSET -0.002556 0.056561 0.009225
					CHANNELS 3 Zrotation Yrotation Xrotation
					JOINT Spine3_Neck
					{
						OFFSET 0.000000 0.000000 0.000000
						CHANNELS 3 Zrotation Yrotation Xrotation
						JOINT Neck
						{
							OFFSET -0.005205 0.217920 -0.024551
							CHANNELS 3 Zrotation Yrotation Xrotation
							End Site #name: Head
							{
								OFFSET 0.002365 0.091850 0.046637
							}
						}
					}
					JOINT Spine3_L_Collar
					{
						OFFSET 0.000000 0.000000 0.000000
						CHANNELS 3 Zrotation Yrotation Xrotation
						JOINT L_Collar
						{
							OFFSET 0.072225 0.116603 -0.009480
							CHANNELS 3 Zrotation Yrotation Xrotation
							JOINT L_Shoulder
							{
								OFFSET 0.115937 -0.058643 -0.021018
								CHANNELS 3 Zrotation Yrotation Xrotation
								JOINT L_Elbow
								{
									OFFSET 0.021994 -0.254722 -0.024492
									CHANNELS 3 Zrotation Yrotation Xrotation
									End Site #name: L_Wrist
									{
										OFFSET 0.048810 -0.240214 0.103329
									}
								}
							}
						}
					}
					JOINT Spine3_R_Collar
					{
						OFFSET 0.000000 0.000000 0.000000
						CHANNELS 3 Zrotation Yrotation Xrotation
						JOINT R_Collar
						{
							OFFSET -0.073372 0.120704 -0.024611
							CHANNELS 3 Zrotation Yrotation Xrotation
							JOINT R_Shoulder
							{
								OFFSET -0.108089 -0.054969 -0.020504
								CHANNELS 3 Zrotation Yrotation Xrotation
								JOINT R_Elbow
								{
									OFFSET -0.033684 -0.260739 0.009889
									CHANNELS 3 Zrotation Yrotation Xrotation
									End Site #name: R_Wrist
									{
										OFFSET -0.067980 -0.232763 0.118463
									}
								}
							}
						}
					}
				}
			}
		}
	}
}
MOTION
Frames: 7
Frame Time: 0.041667
0.103378 0.949862 0.762228 0.929303 6.193417 -3.326676 0.000000 0.000000 0.000000 -1.130205 -0.456241 -2.157893 -0.297985 -0.372988 13.695732 4.053811 -2.016754 -7.577161 0.000000 0.000000 0.000000 -0.239432 0.043001 -0.208831 -1.481597 0.607788 5.337611 -0.790690 0.978621 -2.674214 0.000000 0.000000 0.000000 -5.502309 1.282379 -4.324445 2.785708 -0.307108 9.436926 2.837182 4.013268 -5.551789 0.000000 0.000000 0.000000 0.008563 0.116933 -2.562363 0.000000 0.000000 0.000000 -2.342619 -7.902291 -4.436529 10.080056 -0.813521 -12.145683 -1.912790 -2.820687 -8.200054 0.000000 0.000000 0.000000 -3.481490 11.018462 -5.544595 -4.778203 0.331544 -5.625525 -2.332354 -0.303290 -3.306831 
0.103803 0.951173 0.768346 0.942799 5.889769 -2.159574 0.000000 0.000000 0.000000 -1.110139 -0.392807 -1.912157 -0.305888 -0.298638 11.761088 3.697406 -2.010190 -7.016755 0.000000 0.000000 0.000000 -0.494353 0.032606 -0.079896 -1.102530 0.405871 3.419666 -0.415883 1.436130 -2.054421 0.000000 0.000000 0.000000 -5.400537 1.329169 -5.549090 3.075298 -0.374855 9.864986 2.487507 3.463534 -5.706755 0.000000 0.000000 0.000000 0.148784 0.051373 -2.657552 0.000000 0.000000 0.000000 -2.124304 -7.678038 -4.282100 10.352070 -0.809216 -11.239081 -1.532145 -2.583224 -8.068266 0.000000 0.000000 0.000000 -3.144087 9.603096 -4.758244 -4.718863 0.303618 -5.288274 -2.534545 0.113870 -5.248891 
0.105303 0.951831 0.773950 0.916691 5.439756 -1.180369 0.000000 0.000000 0.000000 -1.158066 -0.252285 -1.374007 -0.294518 -0.228203 9.648307 3.520264 -1.924034 -6.720833 0.000000 0.000000 0.000000 -0.774055 0.045160 -0.076572 -0.631987 0.227936 1.993862 -0.120215 2.002904 -1.712923 0.000000 0.000000 0.000000 -4.997764 1.319908 -6.486375 3.128305 -0.383143 10.070755 2.096790 2.977566 -5.676095 0.000000 0.000000 0.000000 0.251645 0.012666 -2.963656 0.000000 0.000000 0.000000 -2.395065 -7.004991 -3.965822 10.634481 -0.811488 -9.758403 -1.355443 -2.288664 -7.263330 0.000000 0.000000 0.000000 -2.859741 8.170072 -3.976571 -4.829168 0.197064 -4.182774 -1.769876 0.910396 -6.516425 
0.106337 0.951367 0.779953 0.829077 4.980680 -0.712171 0.000000 0.000000 0.000000 -1.200009 -0.106377 -0.808958 -0.213292 -0.204804 8.562003 3.607112 -1.674709 -6.782517 0.000000 0.000000 0.000000 -0.847996 0.042170 -0.031000 -0.429359 0.165012 1.553260 -0.042587 2.474612 -1.834714 0.000000 0.000000 0.000000 -4.579601 1.276151 -6.735939 3.102040 -0.371152 10.178720 1.820787 2.614970 -5.515172 0.000000 0.000000 0.000000 0.380556 -0.055897 -2.879697 0.000000 0.000000 0.000000 -3.124460 -5.972334 -3.540400 10.930003 -0.824162 -8.139898 -1.130310 -1.730892 -5.424074 0.000000 0.000000 0.000000 -2.420641 6.710134 -3.208595 -5.313323 0.038509 -2.688818 -0.581941 1.654406 -6.671793 
0.107308 0.950558 0.785764 0.737940 4.554118 -0.665266 0.000000 0.000000 0.000000 -1.232106 0.002375 -0.385928 -0.179661 -0.207641 8.575125 3.881575 -1.373391 -7.131190 0.000000 0.000000 0.000000 -0.722798 0.026484 0.034682 -0.541664 0.208229 1.926913 -0.124956 2.815006 -2.243006 0.000000 0.000000 0.000000 -4.227211 1.213339 -6.476970 3.010477 -0.343581 10.160115 1.649894 2.297980 -5.104375 0.000000 0.000000 0.000000 0.517074 -0.127240 -2.812115 0.000000 0.000000 0.000000 -3.569068 -4.890384 -3.065117 10.253747 -0.826022 -6.644358 -0.224680 -0.617562 -2.420281 0.000000 0.000000 0.000000 -1.968360 5.324819 -2.502251 -5.479332 -0.086211 -1.274437 0.003784 1.613771 -5.411578 
0.108293 0.949866 0.790980 0.687536 4.162901 -0.719918 0.000000 0.000000 0.000000 -1.272426 0.098883 -0.014476 -0.222541 -0.206120 8.825627 4.100185 -1.102577 -7.402383 0.000000 0.000000 0.000000 -0.589401 0.019043 0.045022 -0.764089 0.287815 2.542901 -0.222119 3.071706 -2.624634 0.000000 0.000000 0.000000 -3.972993 1.157192 -6.125254 2.947863 -0.323795 10.152829 1.460034 1.957691 -4.657421 0.000000 0.000000 0.000000 0.653079 -0.203894 -2.631112 0.000000 0.000000 0.000000 -3.807352 -3.791848 -2.560596 8.950935 -0.788436 -5.187172 1.239765 0.826075 1.518447 0.000000 0.000000 0.000000 -1.361471 3.873010 -1.798506 -5.290436 -0.174830 -0.107631 -0.423409 0.663862 -3.034614 
0.109340 0.949435 0.795526 0.672149 3.821497 -0.626674 0.000000 0.000000 0.000000 -1.344182 0.210126 0.401610 -0.267544 -0.190736 8.591117 4.153543 -0.912223 -7.431053 0.000000 0.000000 0.000000 -0.564410 0.022002 0.022124 -0.902679 0.333307 2.842173 -0.239716 3.308353 -2.804708 0.000000 0.000000 0.000000 -3.805256 1.127936 -6.042496 2.965536 -0.323948 10.243407 1.182393 1.568824 -4.358498 0.000000 0.000000 0.000000 0.810052 -0.301003 -2.226325 0.000000 0.000000 0.000000 -3.881676 -2.652921 -2.016795 7.352640 -0.697127 -3.565366 3.022364 2.256053 5.629702 0.000000 0.000000 0.000000 -0.712517 2.218165 -1.021556 -4.775681 -0.243304 0.865657 -1.795741 -0.834440 -0.281094 
